<svg width="18" height="23" viewBox="0 0 18 23" fill="none" xmlns="http://www.w3.org/2000/svg">
<path d="M17.4648 1.64681C17.1828 1.08162 16.7763 0.589993 16.2748 0.208117C16.1248 0.0909609 15.9447 0.0207248 15.7563 0.00393499C15.5664 -0.0129952 15.3765 0.0250652 15.2083 0.111168C15.0401 0.197227 14.899 0.328455 14.8009 0.489625C14.703 0.650322 14.651 0.835846 14.6528 1.02541L14.6608 2.61851L14.6609 2.62093C14.6617 2.70789 14.6453 2.79588 14.6119 2.87959C14.5784 2.96332 14.5286 3.04061 14.4653 3.10664C14.4019 3.17266 14.3268 3.2256 14.2445 3.26255C14.1623 3.29949 14.075 3.31951 13.9881 3.32227L12.9952 3.35858L12.9928 3.35868C12.9059 3.36228 12.8209 3.34857 12.7425 3.31923C12.6641 3.2899 12.5934 3.24537 12.534 3.18842C12.4747 3.13147 12.4272 3.06269 12.3947 2.98562C12.3621 2.90852 12.3449 2.82417 12.3449 2.73717L12.3377 1.31268L12.3376 1.31087C12.336 1.11751 12.2784 0.927958 12.1695 0.766174C12.0606 0.604296 11.9062 0.479023 11.7258 0.405508C11.5455 0.332062 11.3487 0.314009 11.1595 0.350725C10.9704 0.387406 10.796 0.477172 10.6563 0.608103L10.6484 0.615832C10.2286 1.02688 9.89478 1.51758 9.66789 2.05781C9.44107 2.59791 9.32572 3.17653 9.3299 3.75801C9.33371 4.36783 9.46706 4.96721 9.72214 5.51603C9.97725 6.0649 10.348 6.55003 10.81 6.9388L10.8119 6.94042C10.9888 7.08776 11.132 7.27165 11.2323 7.48071C11.3319 7.68843 11.3872 7.91706 11.3938 8.15248C11.4048 10.3438 11.421 12.535 11.4321 14.7263C11.4278 14.9754 11.3697 15.2237 11.2608 15.4538C11.1514 15.6847 10.9939 15.8911 10.7989 16.0583C10.3065 16.4721 9.90883 16.988 9.63498 17.5688C9.36076 18.1503 9.21725 18.783 9.21604 19.4209L9.21604 19.4236C9.21822 20.0638 9.36606 20.6922 9.64964 21.2606C9.93323 21.8291 10.3447 22.3219 10.853 22.701L10.8572 22.7041C11.0086 22.8146 11.1876 22.8791 11.3733 22.8922C11.5588 22.9052 11.7435 22.8665 11.9077 22.7825C12.0718 22.6985 12.2105 22.5718 12.3091 22.4162C12.4077 22.2607 12.4633 22.0807 12.4681 21.8952L12.4683 21.8876L12.4602 20.2855L12.4602 20.2831C12.4593 20.1961 12.4757 20.1081 12.5092 20.0244C12.5427 19.9407 12.5924 19.8634 12.6558 19.7974C12.7191 19.7313 12.7943 19.6784 12.8765 19.6414C12.9588 19.6045 13.046 19.5845 13.1329 19.5817L13.1353 19.5816L14.1258 19.5454L14.1282 19.5453C14.2152 19.5417 14.3002 19.5554 14.3786 19.5848C14.4569 19.6141 14.5276 19.6586 14.587 19.7156C14.6463 19.7725 14.6938 19.8413 14.7263 19.9184C14.7589 19.9955 14.7762 20.0798 14.7762 20.1668L14.7762 20.1692L14.7833 21.5913L14.7834 21.5976C14.7868 21.7907 14.846 21.9795 14.9561 22.1402C15.0663 22.3009 15.2214 22.4247 15.4021 22.4968C15.5826 22.5688 15.7793 22.5854 15.968 22.5475C16.1566 22.5096 16.3301 22.4189 16.4689 22.2874L16.4745 22.2819C16.8945 21.8713 17.2285 21.3811 17.4558 20.8413C17.6831 20.3014 17.7991 19.723 17.7955 19.1415L17.7952 19.1311C17.7789 18.5265 17.6376 17.9345 17.3795 17.3925C17.1218 16.8513 16.7533 16.3722 16.297 15.9857C16.1219 15.8341 15.9796 15.6479 15.8787 15.4376C15.779 15.2296 15.7215 15.0018 15.7102 14.7668L15.689 8.1722C15.6916 7.92464 15.7485 7.67751 15.8569 7.44866C15.9658 7.21857 16.1236 7.01341 16.3191 6.84825C16.8166 6.43711 17.2179 5.92089 17.4927 5.3382C17.7679 4.75463 17.9093 4.11889 17.905 3.47876L17.905 3.47611C17.8973 2.83828 17.7473 2.21315 17.4648 1.64681Z" fill="#6A7283"/>
<path d="M4.14042 0.374721L1.73566 0.336833L0 5.97769L1.75582 7.73351L1.86132 12.7125L0.218423 12.6845L0.355626 19.7712C0.368298 20.5601 0.693287 21.3173 1.25526 21.8793C1.53386 22.1579 1.86313 22.3809 2.22464 22.5353C2.58616 22.6897 2.97333 22.7728 3.36427 22.7789C3.75527 22.7851 4.14244 22.7142 4.50343 22.5694C4.86446 22.4246 5.19174 22.2089 5.46618 21.9345C6.02092 21.3798 6.32307 20.6225 6.31063 19.8326L6.19914 12.7557L4.51607 12.7292L4.50343 7.73351L6.11401 6.02097L4.14042 0.374721Z" fill="#6A7283"/>
</svg>
