<svg width="12" height="12" viewBox="0 0 12 12" fill="none" xmlns="http://www.w3.org/2000/svg">
<path fill-rule="evenodd" clip-rule="evenodd" d="M5.88656 0.292919C5.69901 0.105354 5.44462 -1.34273e-05 5.17938 1.28339e-09L0.999949 0.000211592C0.44767 0.000239552 -2.06625e-05 0.447969 7.15258e-10 1.00025L0.000156357 5.17928C0.000166279 5.44447 0.105512 5.6988 0.293024 5.88632L6.11778 11.7115C6.5083 12.102 7.14149 12.1021 7.53202 11.7115L11.7113 7.53227C12.1018 7.14176 12.1018 6.50861 11.7113 6.11808L5.88656 0.292919ZM2.25345 3.26359C2.81128 3.26359 3.2635 2.81137 3.2635 2.25354C3.2635 1.6957 2.81128 1.24349 2.25345 1.24349C1.69561 1.24349 1.2434 1.6957 1.2434 2.25354C1.2434 2.81137 1.69561 3.26359 2.25345 3.26359Z" fill="#6A7283"/>
</svg>
