<svg width="23" height="23" viewBox="0 0 23 23" fill="none" xmlns="http://www.w3.org/2000/svg">
<path fill-rule="evenodd" clip-rule="evenodd" d="M9.57436 0.578975C10.1507 0.200487 10.8186 0 11.5 0C12.1814 0 12.8493 0.200487 13.4256 0.578975L21.2048 5.69402C21.7539 6.05498 22.2072 6.55403 22.5214 7.14552C22.8357 7.73717 23.0005 8.40185 23 9.07786V18.9951V9.07675V9.07786V18.9951C23 20.0607 22.5898 21.0805 21.8629 21.8307C21.1363 22.5806 20.153 23 19.1298 23H3.87019C2.847 23 1.86371 22.5806 1.13714 21.8307C0.41023 21.0805 0 20.0607 0 18.9951V9.07724C-0.000339352 8.40162 0.164489 7.73685 0.478589 7.14552C0.792778 6.55403 1.24587 6.05512 1.79499 5.69416L9.57436 0.578975Z" fill="#6D7A96"/>
<path fill-rule="evenodd" clip-rule="evenodd" d="M7.36612 9.36612C7.85427 8.87796 8.64573 8.87796 9.13388 9.36612L16.205 16.4372C16.6931 16.9253 16.6931 17.7168 16.205 18.205C15.7168 18.6931 14.9253 18.6931 14.4372 18.205L7.36612 11.1339C6.87796 10.6457 6.87796 9.85427 7.36612 9.36612Z" fill="white"/>
<path fill-rule="evenodd" clip-rule="evenodd" d="M7.36649 18.205C6.87834 17.7168 6.87834 16.9254 7.36649 16.4372L14.4376 9.36613C14.9257 8.87797 15.7172 8.87797 16.2053 9.36613C16.6935 9.85428 16.6935 10.6457 16.2053 11.1339L9.13426 18.205C8.64611 18.6931 7.85465 18.6931 7.36649 18.205Z" fill="white"/>
</svg>
