<svg width="23" height="20" viewBox="0 0 23 20" fill="none" xmlns="http://www.w3.org/2000/svg">
<path fill-rule="evenodd" clip-rule="evenodd" d="M17.4637 4.86468L20.9142 1.41421L19.5 0L1 18.5L2.41421 19.9142L6.59749 15.7309C8.06753 16.4783 9.72826 17 11.5 17C17.6056 17 22.3929 10.805 22.6011 10.525L23 10L22.6011 9.475C22.4683 9.29648 20.4742 6.7135 17.4637 4.86468ZM14.9621 7.36629L8.85897 13.4695C9.59047 14.0373 10.5064 14.375 11.5 14.375C13.8937 14.375 15.8364 12.415 15.8364 10C15.8364 9.01145 15.5108 8.09914 14.9621 7.36629ZM11.5 3C12.4088 3 13.2885 3.13727 14.1281 3.37186L11.8601 5.63989C11.7414 5.63003 11.6213 5.625 11.5 5.625C9.10633 5.625 7.16365 7.585 7.16365 10C7.16365 10.1092 7.16762 10.2174 7.17542 10.3246L3.67938 13.8206C1.72736 12.252 0.50199 10.6636 0.398944 10.525L0 10L0.398944 9.475C0.607089 9.195 5.39442 3 11.5 3Z" fill="#8D9FC3"/>
</svg>
