<svg width="23" height="23" viewBox="0 0 23 23" fill="none" xmlns="http://www.w3.org/2000/svg">
<path fill-rule="evenodd" clip-rule="evenodd" d="M11.5 0C10.8186 0 10.1507 0.200487 9.57436 0.578975L1.795 5.69416C1.24587 6.05512 0.792778 6.55403 0.478589 7.14552C0.164489 7.73685 -0.000338829 8.40162 0 9.07724V18.9951C0 20.0607 0.41023 21.0805 1.13714 21.8307C1.86371 22.5806 2.847 23 3.87019 23H19.1298C20.153 23 21.1363 22.5806 21.8629 21.8307C22.5898 21.0805 23 20.0607 23 18.9951V9.07786C23.0005 8.40185 22.8357 7.73717 22.5214 7.14552C22.2072 6.55403 21.7539 6.05498 21.2048 5.69402L13.4256 0.578975C12.8493 0.200487 12.1814 0 11.5 0ZM18.4334 8.22933C19.0433 8.64209 19.203 9.47107 18.7902 10.0809L11.2895 19.1816L6.43359 14.2294C5.8903 13.7322 5.85287 12.8889 6.35002 12.3456C6.84709 11.8024 7.69051 11.7649 8.23372 12.262L11.2895 15.13L16.5819 8.58606C16.9947 7.97624 17.8236 7.81653 18.4334 8.22933Z" fill="#6D7A96"/>
</svg>
