<svg width="34" height="29" viewBox="0 0 34 29" fill="none" xmlns="http://www.w3.org/2000/svg">
<path fill-rule="evenodd" clip-rule="evenodd" d="M8.64547 21.6703V10.7898C8.64891 6.30984 12.3879 2.67844 16.999 2.67844C21.6133 2.67844 25.3525 6.31139 25.3525 10.795V22.3034C25.3525 24.5233 23.5019 26.3213 21.2172 26.3213H17.535C16.7734 26.3213 16.1566 26.9207 16.1566 27.6607C16.1566 28.4007 16.7734 29 17.535 29H21.2172C24.7787 29 27.7097 26.3766 28.0714 23.0097H28.5245C32.3307 23.0097 34 20.0112 34 16.313V15.2148C34 11.5149 32.3307 8.51813 28.5245 8.51813H27.8612C26.786 3.64983 22.332 0 16.9991 0C11.668 0 7.21208 3.64966 6.13712 8.51813H5.47548C1.66929 8.51813 0 11.5149 0 15.2148V16.313C0 20.0112 1.66929 23.0097 5.47548 23.0097H7.26743C8.02903 23.0097 8.64547 22.4087 8.64547 21.6703Z" fill="white"/>
</svg>
