<svg width="23" height="22" viewBox="0 0 23 22" fill="none" xmlns="http://www.w3.org/2000/svg">
<path fill-rule="evenodd" clip-rule="evenodd" d="M9.57436 0.553802C10.1507 0.191771 10.8186 0 11.5 0C12.1814 0 12.8493 0.191771 13.4256 0.553802L21.2048 5.44645C21.7539 5.79172 22.2072 6.26907 22.5214 6.83485C22.8357 7.40077 23.0005 8.03655 23 8.68317V18.1692V8.68211V8.68317V18.1692C23 19.1885 22.5898 20.1639 21.8629 20.8815C21.1363 21.5988 20.153 22 19.1298 22H3.87019C2.847 22 1.86371 21.5988 1.13714 20.8815C0.41023 20.1639 0 19.1885 0 18.1692V8.68258C-0.000339352 8.03633 0.164489 7.40047 0.478589 6.83485C0.792778 6.26907 1.24587 5.79186 1.79499 5.44659L9.57436 0.553802Z" fill="#6D7A96"/>
<path d="M3 17.1189C3 17.6769 3.22388 18.212 3.6224 18.6066C4.02091 19.0012 4.56142 19.2228 5.125 19.2228H9.60571L8.08786 20.7256L9.375 22L12.4471 18.9583C12.6177 18.7893 12.7135 18.5601 12.7135 18.3212C12.7135 18.0822 12.6177 17.853 12.4471 17.684L9.375 14.6423L8.08786 15.9167L9.60571 17.4195H5.125C5.04449 17.4195 4.96727 17.3878 4.91034 17.3314C4.85341 17.2751 4.82143 17.1986 4.82143 17.1189V9.16913C4.82151 9.11884 4.83434 9.06937 4.85874 9.02526C4.88314 8.98115 4.91832 8.94381 4.96107 8.91666L11.4605 4.82003C11.472 4.81313 11.4851 4.80948 11.4985 4.80948C11.5119 4.80948 11.525 4.81313 11.5364 4.82003L18.0389 8.91666C18.0817 8.94381 18.1169 8.98115 18.1413 9.02526C18.1657 9.06937 18.1785 9.11884 18.1786 9.16913V17.1189C18.1786 17.1986 18.1466 17.2751 18.0897 17.3314C18.0327 17.3878 17.9555 17.4195 17.875 17.4195H14.8393V19.2228H17.875C18.4386 19.2228 18.9791 19.0012 19.3776 18.6066C19.7761 18.212 20 17.6769 20 17.1189V9.16913C20.0003 8.81502 19.9103 8.46657 19.7384 8.15606C19.5664 7.84555 19.3181 7.58303 19.0164 7.39282L12.517 3.29319C12.213 3.10171 11.8603 3 11.5 3C11.1397 3 10.787 3.10171 10.483 3.29319L3.98357 7.39282C3.68189 7.58303 3.43358 7.84555 3.26164 8.15606C3.08971 8.46657 2.99972 8.81502 3 9.16913V17.1189Z" fill="white"/>
</svg>
