<svg width="23" height="22" viewBox="0 0 23 22" fill="none" xmlns="http://www.w3.org/2000/svg">
<path fill-rule="evenodd" clip-rule="evenodd" d="M9.57436 0.553802C10.1507 0.191771 10.8186 0 11.5 0C12.1814 0 12.8493 0.191771 13.4256 0.553802L21.2048 5.44645C21.7539 5.79172 22.2072 6.26907 22.5214 6.83485C22.8357 7.40077 23.0005 8.03655 23 8.68317V18.1692V8.68211V8.68317V18.1692C23 19.1885 22.5898 20.1639 21.8629 20.8815C21.1363 21.5988 20.153 22 19.1298 22H3.87019C2.847 22 1.86371 21.5988 1.13714 20.8815C0.41023 20.1639 0 19.1885 0 18.1692V8.68258C-0.000339352 8.03633 0.164489 7.40047 0.478589 6.83485C0.792778 6.26907 1.24587 5.79186 1.79499 5.44659L9.57436 0.553802Z" fill="#6D7A96"/>
<path fill-rule="evenodd" clip-rule="evenodd" d="M3 17.1189C3 17.6769 3.22389 18.2121 3.6224 18.6066C4.02091 19.0012 4.56142 19.2228 5.125 19.2228H17.875C18.4386 19.2228 18.9791 19.0012 19.3776 18.6066C19.7761 18.2121 20 17.6769 20 17.1189V9.16913C20.0003 8.81502 19.9103 8.46657 19.7384 8.15606C19.5664 7.84555 19.3181 7.58302 19.0164 7.39282L12.517 3.29319C12.213 3.10171 11.8603 3 11.5 3C11.1398 3 10.787 3.10171 10.483 3.29319L3.98357 7.39282C3.68189 7.58302 3.43358 7.84555 3.26165 8.15606C3.08971 8.46657 2.99972 8.81502 3 9.16913V17.1189ZM5.12486 17.4194C5.04435 17.4194 4.96714 17.3878 4.9102 17.3314C4.85327 17.2751 4.82129 17.1986 4.82129 17.1189V9.1691C4.82137 9.1188 4.8342 9.06934 4.8586 9.02524C4.883 8.98112 4.91818 8.94379 4.96093 8.91663L11.4604 4.82001C11.4718 4.8131 11.485 4.80945 11.4983 4.80945C11.5117 4.80945 11.5249 4.8131 11.5363 4.82001L18.0388 8.91663C18.0815 8.94379 18.1167 8.98112 18.1411 9.02524C18.1655 9.06934 18.1783 9.1188 18.1784 9.1691V17.1189C18.1784 17.1986 18.1464 17.2751 18.0895 17.3314C18.0326 17.3878 17.9554 17.4194 17.8749 17.4194H5.12486Z" fill="white"/>
</svg>
