<svg width="333" height="199" viewBox="0 0 333 199" fill="none" xmlns="http://www.w3.org/2000/svg">
<path d="M123.494 144.529L12.351 145L9.7751 142.362V74.0282L1 27.4033L2.99434 25C43.9909 25.1165 123.91 25.588 127.254 25.3083C130.599 25.0286 132.304 28.2675 131.955 29.5494L123.494 74.3159V144.529Z" fill="white"/>
<rect x="197.413" y="0.551203" width="134.922" height="183.413" rx="7.5" transform="rotate(6.21652 197.413 0.551203)" fill="white" stroke="#ACB2BE"/>
<rect x="184.465" y="2.82227" width="134.922" height="183.413" rx="7.5" fill="white" stroke="#ACB2BE"/>
<mask id="path-4-inside-1_2173_301" fill="white">
<rect x="244.211" y="16.2817" width="6.6124" height="6.6124" rx="1"/>
</mask>
<rect x="244.211" y="16.2817" width="6.6124" height="6.6124" rx="1" stroke="#ACB2BE" stroke-width="4" mask="url(#path-4-inside-1_2173_301)"/>
<mask id="path-5-inside-2_2173_301" fill="white">
<rect x="244.211" y="25.0984" width="6.6124" height="6.6124" rx="1"/>
</mask>
<rect x="244.211" y="25.0984" width="6.6124" height="6.6124" rx="1" stroke="#ACB2BE" stroke-width="4" mask="url(#path-5-inside-2_2173_301)"/>
<mask id="path-6-inside-3_2173_301" fill="white">
<rect x="253.027" y="16.2817" width="6.6124" height="6.6124" rx="1"/>
</mask>
<rect x="253.027" y="16.2817" width="6.6124" height="6.6124" rx="1" stroke="#ACB2BE" stroke-width="4" mask="url(#path-6-inside-3_2173_301)"/>
<rect x="253.027" y="25.0984" width="2.20413" height="2.20413" rx="1" fill="#ACB2BE"/>
<rect x="257.437" y="29.5066" width="2.20413" height="2.20413" rx="1" fill="#ACB2BE"/>
<rect x="257.437" y="25.0984" width="2.20413" height="2.20413" rx="1" fill="#ACB2BE"/>
<rect x="196.456" y="39.0581" width="110.941" height="15.4289" rx="1" fill="#E8E8E8"/>
<rect x="196.456" y="97.8345" width="110.941" height="8.08183" rx="1" fill="#E8E8E8"/>
<path d="M272.498 20.6902H305.927" stroke="#ACB2BE" stroke-width="3" stroke-linecap="round"/>
<path d="M272.498 20.6902H305.927" stroke="#ACB2BE" stroke-width="3" stroke-linecap="round"/>
<path d="M272.498 61.0991H305.927" stroke="#ACB2BE" stroke-width="3" stroke-linecap="round"/>
<path d="M284.62 66.2422L305.927 66.2422" stroke="#ACB2BE" stroke-width="3" stroke-linecap="round"/>
<path d="M197.925 61.0991H231.354" stroke="#ACB2BE" stroke-width="3" stroke-linecap="round"/>
<path d="M197.925 71.385H239.803" stroke="#ACB2BE" stroke-width="3" stroke-linecap="round"/>
<path d="M197.925 114.733H239.803" stroke="#ACB2BE" stroke-width="3" stroke-linecap="round"/>
<path d="M197.925 66.2422H218.497" stroke="#ACB2BE" stroke-width="3" stroke-linecap="round"/>
<path d="M197.925 76.5283H210.415" stroke="#ACB2BE" stroke-width="3" stroke-linecap="round"/>
<path d="M197.925 119.876H210.415" stroke="#ACB2BE" stroke-width="3" stroke-linecap="round"/>
<path d="M231.354 20.6902H197.925" stroke="#ACB2BE" stroke-width="3" stroke-linecap="round"/>
<path d="M287.56 25.8333H305.927" stroke="#ACB2BE" stroke-width="3" stroke-linecap="round"/>
<path d="M216.293 25.8333H197.925" stroke="#ACB2BE" stroke-width="3" stroke-linecap="round"/>
<path fill-rule="evenodd" clip-rule="evenodd" d="M122.675 74.7006H10.1478V140.59C10.1478 142.161 11.4126 143.434 12.9728 143.434H119.85C121.411 143.434 122.675 142.161 122.675 140.59V74.7006ZM8.73535 73.2786V140.59C8.73535 142.946 10.6325 144.856 12.9728 144.856H119.85C122.191 144.856 124.088 142.946 124.088 140.59V73.2786H8.73535Z" fill="#ACB2BE"/>
<path fill-rule="evenodd" clip-rule="evenodd" d="M122.741 73.2906L131.207 28.0444C131.472 26.6269 130.149 25.3475 128.418 25.3475L4.23441 25.3474C2.50328 25.3474 1.1801 26.6269 1.44532 28.0444L9.91114 73.2906L122.741 73.2906ZM8.70188 74.46L123.95 74.46L132.601 28.2236C132.999 26.0973 131.015 24.1781 128.418 24.1781L4.23441 24.1781C1.6377 24.1781 -0.347052 26.0973 0.0507828 28.2236L8.70188 74.46Z" fill="#ACB2BE"/>
<path fill-rule="evenodd" clip-rule="evenodd" d="M41.0409 124.63C41.0525 124.647 41.069 124.66 41.0879 124.665C44.2395 125.443 51.5663 127.937 51.5663 134.163C51.5663 134.489 51.4458 134.801 51.2311 135.032C51.0165 135.262 50.7254 135.392 50.4218 135.392H19.584C19.2804 135.392 18.9893 135.262 18.7747 135.032C18.56 134.801 18.4395 134.489 18.4395 134.163C18.4395 127.937 25.7663 125.443 28.9145 124.633C28.9337 124.628 28.9507 124.616 28.9623 124.598C28.974 124.581 28.9797 124.56 28.9783 124.539V123.22C28.2497 122.196 27.7067 121.033 27.3773 119.794C26.5616 118.929 26.1984 117.561 25.9993 116.811L25.9945 116.792C25.6757 115.578 25.3535 113.824 26.2362 112.57L26.2765 112.516C26.216 112.155 26.1758 111.795 26.1489 111.435C25.7529 108.592 26.0583 106.47 27.0652 105.14C27.6062 104.414 28.3879 103.94 29.2468 103.818C29.7603 101.923 32.2641 100.067 34.5397 100.575C36.5875 101.031 40.6684 100.587 41.3214 100.516C41.3759 100.51 41.4065 100.507 41.4101 100.507C41.4694 100.501 41.5282 100.521 41.5746 100.561C41.5973 100.581 41.6158 100.606 41.6291 100.635C41.6424 100.663 41.6501 100.695 41.6518 100.726C41.6607 101.054 41.6079 101.38 41.4966 101.685C41.3853 101.991 41.2177 102.269 41.004 102.503C44.6859 105.14 44.1556 110.343 43.7293 112.544L43.7696 112.602C44.6523 113.86 44.3469 115.614 44.0113 116.825L44.0097 116.831C43.8114 117.578 43.4453 118.957 42.6251 119.83C42.294 121.061 41.7509 122.215 41.0241 123.231V124.571C41.0234 124.593 41.0293 124.613 41.0409 124.63ZM33.0311 125.653C34.3069 126.137 35.6965 126.137 36.9724 125.654C37.4971 125.448 37.9985 125.176 38.466 124.843L39.2504 124.284L39.5402 125.201C39.679 125.64 39.9606 125.994 40.3159 126.206L40.9552 126.587L40.5341 127.2C39.9018 128.12 39.0705 128.87 38.1062 129.382C37.1448 129.893 36.0807 130.153 35.0024 130.137C33.9232 130.152 32.8585 129.89 31.8971 129.377C30.9327 128.862 30.102 128.11 29.471 127.188L29.0521 126.576L29.6895 126.196C30.0408 125.986 30.3202 125.637 30.4603 125.204L30.7537 124.298L31.5318 124.849C32.0007 125.182 32.5042 125.451 33.0311 125.653ZM27.3113 113.517L27.3067 113.523L27.3022 113.529C26.97 113.999 26.8823 114.839 27.2946 116.401C27.5621 117.414 27.8199 118.032 28.0605 118.413C28.2086 118.647 28.381 118.839 28.5817 118.957C28.9838 121.14 30.5305 123.863 33.2239 124.878C34.3755 125.317 35.635 125.317 36.7866 124.878L36.7902 124.876C39.3647 123.879 41.0145 121.199 41.4328 118.966C41.6467 118.841 41.8195 118.638 41.9556 118.422C42.1962 118.04 42.4538 117.421 42.7213 116.408C43.1336 114.846 43.0458 114.006 42.7137 113.536L42.7005 113.518L42.686 113.5C42.5577 113.342 42.3907 113.215 42.1972 113.136C42.2484 112.823 42.2869 112.396 42.2395 111.921C42.1605 111.127 41.836 110.168 40.9095 109.433L40.6426 109.221L40.3109 109.3C39.1637 109.574 37.1903 109.683 34.4684 108.423L34.4661 108.422C32.9479 107.727 31.4951 107.624 30.3031 108.404C29.1722 109.142 28.5913 110.475 28.2877 111.494C28.1005 112.123 27.9987 112.703 27.9476 113.083C27.8826 113.1 27.8191 113.123 27.7578 113.151C27.5781 113.235 27.4259 113.362 27.3113 113.517Z" fill="#ACB2BE"/>
<path fill-rule="evenodd" clip-rule="evenodd" d="M59.2559 104.927C59.2559 105.743 60.0015 106.406 60.9212 106.406L101.365 106.406C102.285 106.406 103.031 105.743 103.031 104.927C103.031 104.11 102.285 103.448 101.365 103.448L60.9212 103.448C60.0015 103.448 59.2559 104.11 59.2559 104.927Z" fill="#ACB2BE"/>
<path fill-rule="evenodd" clip-rule="evenodd" d="M60.4375 129.476C60.4375 130.129 60.858 130.659 61.3767 130.659L105.048 130.659C105.566 130.659 105.987 130.129 105.987 129.476C105.987 128.823 105.566 128.293 105.048 128.293L61.3767 128.293C60.858 128.293 60.4375 128.823 60.4375 129.476Z" fill="#ACB2BE"/>
<path fill-rule="evenodd" clip-rule="evenodd" d="M59.2559 112.913C59.2559 113.893 59.9974 114.687 60.9122 114.687L81.2616 114.687C82.1763 114.687 82.9179 113.893 82.9179 112.913C82.9179 111.932 82.1763 111.138 81.2616 111.138L60.9122 111.138C59.9974 111.138 59.2559 111.932 59.2559 112.913Z" fill="#ACB2BE"/>
<path fill-rule="evenodd" clip-rule="evenodd" d="M60.4375 135.096C60.4375 135.586 60.8557 135.983 61.3715 135.983L94.9966 135.983C95.5124 135.983 95.9306 135.586 95.9306 135.096C95.9306 134.606 95.5124 134.208 94.9966 134.208L61.3715 134.209C60.8557 134.209 60.4375 134.606 60.4375 135.096Z" fill="#ACB2BE"/>
<path fill-rule="evenodd" clip-rule="evenodd" d="M60.4375 122.673C60.4375 123.164 60.8595 123.561 61.38 123.561L87.2979 123.561C87.8185 123.561 88.2404 123.164 88.2404 122.673C88.2404 122.183 87.8185 121.786 87.2979 121.786L61.38 121.786C60.8595 121.786 60.4375 122.183 60.4375 122.673Z" fill="#ACB2BE"/>
<path fill-rule="evenodd" clip-rule="evenodd" d="M114.27 86.8845C114.27 87.8646 113.53 88.6592 112.617 88.6592L22.4566 88.6592C21.5441 88.6592 20.8044 87.8646 20.8044 86.8845C20.8044 85.9044 21.5441 85.1099 22.4566 85.1099L112.617 85.1099C113.53 85.1099 114.27 85.9044 114.27 86.8845Z" fill="#ACB2BE"/>
<path fill-rule="evenodd" clip-rule="evenodd" d="M84.3501 54.4595C84.9563 53.2142 85.2841 51.8842 85.2841 50.5028C85.2841 43.4786 76.809 37.7844 66.3545 37.7844C55.8999 37.7844 47.4248 43.4786 47.4248 50.5028C47.4248 51.8842 47.7526 53.2142 48.3588 54.4595C48.4964 54.7423 48.6484 55.0207 48.8141 55.2943C48.8141 55.2943 48.8141 55.2943 48.8141 55.2943C51.6305 59.9436 58.4228 63.2211 66.3545 63.2211H66.3585C74.2884 63.22 81.0789 59.9428 83.8947 55.2943C83.8947 55.2943 83.8948 55.2943 83.8947 55.2943C84.0605 55.0207 84.2125 54.7423 84.3501 54.4595C84.3502 54.4595 84.3501 54.4595 84.3501 54.4595ZM66.3545 62.0288C67.1995 62.0288 68.0303 61.9877 68.8426 61.9084C70.0918 61.3827 71.2952 60.4562 72.3342 59.1265C73.0803 58.1717 73.7079 57.0456 74.1765 55.7927C71.6525 55.8684 69.0361 55.9082 66.3545 55.9082C63.6729 55.9082 61.0564 55.8684 58.5325 55.7927C59.001 57.0456 59.6286 58.1717 60.3747 59.1265C61.4137 60.4562 62.6171 61.3827 63.8663 61.9084C64.6786 61.9877 65.5094 62.0288 66.3545 62.0288ZM58.2592 54.9886C60.8641 55.0702 63.5729 55.1133 66.3545 55.1133C69.1361 55.1133 71.8448 55.0702 74.4498 54.9886C74.8735 53.6075 75.1094 52.0946 75.1094 50.5028C75.1094 48.911 74.8735 47.3982 74.4498 46.0172C71.8449 45.9356 69.1362 45.8925 66.3545 45.8925C63.5728 45.8925 60.8641 45.9356 58.2591 46.0172C57.8354 47.3982 57.5995 48.911 57.5995 50.5028C57.5995 52.0946 57.8354 53.6075 58.2592 54.9886ZM57.04 46.0584C56.6368 47.4419 56.4164 48.9394 56.4164 50.5028C56.4164 52.0662 56.6368 53.5638 57.0401 54.9473C54.7011 54.8622 52.452 54.7459 50.316 54.6017C49.5945 53.3282 49.1995 51.9465 49.1995 50.5028C49.1995 49.0592 49.5945 47.6775 50.3158 46.404C52.4519 46.2599 54.701 46.1436 57.04 46.0584ZM58.5324 45.2131C59.001 43.9601 59.6286 42.8339 60.3747 41.879C61.4137 40.5493 62.6171 39.6228 63.8663 39.0971C64.6786 39.0178 65.5094 38.9768 66.3545 38.9768C67.1995 38.9768 68.0303 39.0178 68.8426 39.0971C70.0918 39.6228 71.2952 40.5493 72.3342 41.879C73.0804 42.8339 73.708 43.9601 74.1765 45.2131C71.6526 45.1374 69.0361 45.0976 66.3545 45.0976C63.6729 45.0976 61.0564 45.1374 58.5324 45.2131ZM75.6689 46.0584C76.0721 47.4419 76.2925 48.9394 76.2925 50.5028C76.2925 52.0662 76.0721 53.5638 75.6688 54.9473C78.0078 54.8622 80.2569 54.7459 82.3929 54.6017C83.1144 53.3282 83.5094 51.9465 83.5094 50.5028C83.5094 49.0592 83.1144 47.6775 82.3931 46.404C80.257 46.2599 78.0079 46.1435 75.6689 46.0584ZM81.8638 45.5705C79.8035 45.4382 77.6453 45.3315 75.4091 45.2531C74.5441 42.8133 73.0946 40.785 71.2894 39.4608C75.9653 40.4028 79.802 42.6489 81.8638 45.5705ZM81.8637 55.4353C79.8034 55.5675 77.6452 55.6743 75.4091 55.7526C74.544 58.1923 73.0946 60.2206 71.2894 61.5447C75.9652 60.6028 79.8018 58.3567 81.8637 55.4353ZM50.8452 55.4353C52.9071 58.3567 56.7438 60.6028 61.4195 61.5448C59.6144 60.2206 58.1649 58.1923 57.2999 55.7526C55.0637 55.6743 52.9055 55.5675 50.8452 55.4353ZM57.2998 45.2532C55.0636 45.3315 52.9054 45.4382 50.8451 45.5705C52.9069 42.6489 56.7437 40.4028 61.4195 39.4608C59.6143 40.785 58.1649 42.8133 57.2998 45.2532Z" fill="#ACB2BE"/>
<rect x="60.8535" y="108.246" width="86.2514" height="53.4977" rx="6" transform="rotate(8.37938 60.8535 108.246)" fill="white"/>
<path fill-rule="evenodd" clip-rule="evenodd" d="M142.881 121.397L63.8334 109.753C62.6795 109.583 61.606 110.383 61.4358 111.538L54.6024 157.929C54.4322 159.085 55.2296 160.16 56.3835 160.33L135.431 171.974C136.585 172.144 137.659 171.345 137.829 170.189L144.662 123.798C144.833 122.642 144.035 121.567 142.881 121.397ZM63.9876 108.707C62.2567 108.452 60.6465 109.651 60.3911 111.385L53.5577 157.776C53.3024 159.509 54.4985 161.122 56.2294 161.377L135.277 173.02C137.008 173.275 138.618 172.076 138.874 170.343L145.707 123.952C145.962 122.218 144.766 120.606 143.035 120.351L63.9876 108.707Z" fill="#ACB2BE"/>
<path fill-rule="evenodd" clip-rule="evenodd" d="M126.209 157.85C126.214 157.861 126.223 157.87 126.234 157.875C128.069 158.631 132.273 160.807 131.713 164.612C131.683 164.811 131.582 164.992 131.432 165.113C131.281 165.235 131.094 165.288 130.91 165.261L112.271 162.516C112.087 162.489 111.923 162.384 111.814 162.224C111.705 162.064 111.66 161.862 111.69 161.663C112.25 157.858 116.903 156.987 118.879 156.771C118.891 156.77 118.902 156.764 118.911 156.755C118.92 156.745 118.925 156.733 118.926 156.72L119.045 155.914C118.696 155.223 118.473 154.464 118.385 153.677C117.97 153.076 117.874 152.208 117.821 151.732L117.82 151.72C117.736 150.95 117.7 149.849 118.346 149.161L118.375 149.132C118.371 148.906 118.379 148.682 118.395 148.46C118.412 146.687 118.788 145.417 119.516 144.694C119.908 144.299 120.423 144.079 120.954 144.081C121.434 142.968 123.115 142.057 124.445 142.57C125.641 143.031 128.148 143.123 128.549 143.138C128.583 143.139 128.601 143.14 128.604 143.14C128.64 143.142 128.674 143.159 128.698 143.188C128.71 143.202 128.719 143.219 128.724 143.238C128.73 143.257 128.732 143.276 128.73 143.296C128.706 143.497 128.644 143.692 128.55 143.868C128.455 144.045 128.329 144.2 128.178 144.324C130.166 146.263 129.378 149.396 128.922 150.703L128.941 150.742C129.361 151.589 129.019 152.634 128.707 153.344L128.705 153.347C128.518 153.786 128.173 154.596 127.598 155.057C127.287 155.78 126.855 156.437 126.325 156.993L126.204 157.812C126.202 157.825 126.203 157.838 126.209 157.85ZM121.275 157.761C122.003 158.171 122.843 158.295 123.658 158.113C123.993 158.034 124.321 157.912 124.633 157.75L125.158 157.479L125.25 158.065C125.295 158.345 125.433 158.587 125.629 158.748L125.981 159.038L125.671 159.375C125.206 159.881 124.636 160.265 124.007 160.492C123.38 160.719 122.713 160.783 122.063 160.677C121.41 160.59 120.79 160.335 120.255 159.936C119.718 159.536 119.284 159.002 118.985 158.383L118.787 157.971L119.207 157.796C119.438 157.699 119.638 157.51 119.762 157.258L120.021 156.73L120.441 157.137C120.695 157.382 120.975 157.591 121.275 157.761ZM118.911 149.835L118.907 149.839L118.904 149.842C118.661 150.1 118.532 150.605 118.641 151.597C118.711 152.24 118.811 152.64 118.923 152.894C118.991 153.051 119.078 153.183 119.189 153.273C119.235 154.643 119.925 156.445 121.462 157.305C122.118 157.676 122.88 157.788 123.615 157.622L123.617 157.621C125.263 157.241 126.502 155.751 126.956 154.423C127.096 154.366 127.219 154.257 127.321 154.137C127.5 153.925 127.712 153.57 127.965 152.974C128.354 152.057 128.377 151.535 128.219 151.219L128.212 151.206L128.205 151.194C128.142 151.086 128.052 150.994 127.942 150.928C128.001 150.742 128.063 150.484 128.077 150.189C128.101 149.697 127.991 149.082 127.497 148.55L127.355 148.397L127.148 148.416C126.43 148.481 125.227 148.372 123.695 147.36L123.694 147.359C122.839 146.799 121.97 146.607 121.179 146.978C120.429 147.328 119.958 148.091 119.683 148.687C119.513 149.054 119.399 149.399 119.334 149.627C119.293 149.632 119.253 149.64 119.213 149.652C119.097 149.687 118.994 149.751 118.911 149.835Z" fill="#ACB2BE"/>
<path fill-rule="evenodd" clip-rule="evenodd" d="M111.193 143.901C111.104 144.502 110.483 144.908 109.805 144.808L87.013 141.451C86.3352 141.351 85.8575 140.783 85.946 140.182C86.0345 139.581 86.6557 139.174 87.3335 139.274L110.126 142.632C110.803 142.731 111.281 143.3 111.193 143.901Z" fill="#ACB2BE"/>
<path fill-rule="evenodd" clip-rule="evenodd" d="M108.706 157.766C108.652 158.126 108.298 158.373 107.913 158.316L83.1887 154.674C82.8041 154.617 82.5353 154.279 82.5884 153.918C82.6416 153.558 82.9964 153.311 83.3811 153.368L108.105 157.01C108.49 157.067 108.759 157.405 108.706 157.766Z" fill="#ACB2BE"/>
<path fill-rule="evenodd" clip-rule="evenodd" d="M110.52 148.471C110.414 149.192 109.782 149.696 109.109 149.597L97.6178 147.905C96.9447 147.805 96.4851 147.14 96.5914 146.419C96.6976 145.698 97.3294 145.194 98.0025 145.293L109.494 146.986C110.167 147.085 110.627 147.75 110.52 148.471Z" fill="#ACB2BE"/>
<path fill-rule="evenodd" clip-rule="evenodd" d="M108.257 160.812C108.204 161.173 107.851 161.42 107.468 161.363L88.3962 158.554C88.0132 158.498 87.7458 158.159 87.7989 157.799C87.852 157.438 88.2056 157.192 88.5886 157.248L107.66 160.057C108.043 160.114 108.31 160.452 108.257 160.812Z" fill="#ACB2BE"/>
<path fill-rule="evenodd" clip-rule="evenodd" d="M109.283 153.848C109.23 154.209 108.873 154.455 108.486 154.398L93.7812 152.232C93.3945 152.175 93.124 151.836 93.1771 151.476C93.2303 151.115 93.5868 150.869 93.9736 150.926L108.679 153.092C109.065 153.149 109.336 153.487 109.283 153.848Z" fill="#ACB2BE"/>
<path fill-rule="evenodd" clip-rule="evenodd" d="M138.583 127.033C138.495 127.634 137.877 128.041 137.204 127.942L80.4429 119.581C79.7698 119.482 79.2958 118.914 79.3844 118.313C79.4729 117.712 80.0903 117.305 80.7635 117.404L137.525 125.765C138.198 125.864 138.672 126.432 138.583 127.033Z" fill="#ACB2BE"/>
<path fill-rule="evenodd" clip-rule="evenodd" d="M137.877 131.821C137.789 132.422 137.172 132.829 136.501 132.73L97.5809 126.997C96.9092 126.898 96.4365 126.331 96.525 125.73C96.6135 125.129 97.2298 124.722 97.9015 124.821L136.821 130.554C137.493 130.653 137.966 131.22 137.877 131.821Z" fill="#ACB2BE"/>
<path fill-rule="evenodd" clip-rule="evenodd" d="M77.7131 131.17L67.2889 129.634C66.9051 129.578 66.5481 129.843 66.4916 130.227L65.3656 137.871C65.309 138.255 65.5743 138.612 65.9581 138.669L76.3824 140.204C76.7662 140.261 77.1232 139.995 77.1797 139.612L78.3057 131.967C78.3623 131.583 78.097 131.226 77.7131 131.17ZM67.4425 128.592C66.4829 128.451 65.5905 129.114 65.4492 130.073L64.3231 137.718C64.1818 138.677 64.8451 139.57 65.8046 139.711L76.2288 141.247C77.1884 141.388 78.0808 140.725 78.2221 139.765L79.3482 132.121C79.4895 131.161 78.8262 130.269 77.8667 130.127L67.4425 128.592Z" fill="#ACB2BE"/>
<path fill-rule="evenodd" clip-rule="evenodd" d="M68.8886 133.242L65.4138 132.731L65.5674 131.688L69.0421 132.2C69.33 132.242 69.529 132.51 69.4866 132.798C69.4442 133.086 69.1764 133.285 68.8886 133.242Z" fill="#ACB2BE"/>
<path fill-rule="evenodd" clip-rule="evenodd" d="M74.7845 136.596L78.6067 137.159L78.4531 138.201L74.6309 137.638C74.343 137.596 74.1441 137.328 74.1865 137.04C74.2289 136.752 74.4966 136.553 74.7845 136.596Z" fill="#ACB2BE"/>
<path fill-rule="evenodd" clip-rule="evenodd" d="M68.3749 136.717L64.9002 136.205L65.0537 135.163L68.5285 135.675C68.8163 135.717 69.0153 135.985 68.9729 136.273C68.9305 136.561 68.6628 136.759 68.3749 136.717Z" fill="#ACB2BE"/>
<path fill-rule="evenodd" clip-rule="evenodd" d="M75.2962 133.121L79.1184 133.684L78.9648 134.727L75.1426 134.164C74.8548 134.121 74.6558 133.853 74.6982 133.566C74.7406 133.278 75.0083 133.079 75.2962 133.121Z" fill="#ACB2BE"/>
<path d="M153.163 91.119H142.636V85.464H153.163V74.85H158.731V85.464H169.345V91.119H158.731V101.646H153.163V91.119Z" fill="#A0A4AB"/>
</svg>
