<svg width="24" height="24" viewBox="0 0 24 24" fill="none" xmlns="http://www.w3.org/2000/svg">
<path fill-rule="evenodd" clip-rule="evenodd" d="M24 12C24 5.37259 18.6274 0 12 0C5.37259 0 0 5.37259 0 12C0 13.9214 0.450837 15.7347 1.25163 17.3424C1.57302 17.9877 1.69679 18.7593 1.49401 19.5172L0.721323 22.405C0.579412 22.9353 1.06464 23.4206 1.59501 23.2787L4.48285 22.506C5.24073 22.3033 6.01234 22.427 6.65761 22.7484C8.26535 23.5492 10.0786 24 12 24C18.6274 24 24 18.6274 24 12ZM16.5528 11.9345C16.1037 12.3836 15.3756 12.3836 14.9265 11.9345L13.1502 10.1582V17C13.1502 17.6351 12.6353 18.15 12.0002 18.15C11.365 18.15 10.8502 17.6351 10.8502 17V10.1571L9.07272 11.9345C8.62362 12.3836 7.89548 12.3836 7.44637 11.9345C6.99727 11.4854 6.99727 10.7573 7.44637 10.3082L11.9996 5.75494L16.5528 10.3082C17.0019 10.7573 17.0019 11.4854 16.5528 11.9345Z" fill="#6A7283"/>
</svg>
