<svg width="32" height="30" viewBox="0 0 32 30" fill="none" xmlns="http://www.w3.org/2000/svg">
<path fill-rule="evenodd" clip-rule="evenodd" d="M13.8232 2.62932C14.4747 2.21792 15.2298 2 16 2C16.7703 2 17.5253 2.21792 18.1768 2.62932L26.9706 8.18915C27.5914 8.5815 28.1038 9.12394 28.459 9.76687C28.8143 10.41 29.0006 11.1324 29 11.8672V22.6468V11.866V11.8672V22.6468C29 23.8051 28.5363 24.9135 27.7145 25.729C26.8932 26.5441 25.7817 27 24.625 27H7.375C6.21835 27 5.1068 26.5441 4.28547 25.729C3.46374 24.9135 3 23.8051 3 22.6468V11.8666C2.99962 11.1322 3.18594 10.4096 3.54101 9.76687C3.89618 9.12394 4.40838 8.58166 5.02912 8.18931L13.8232 2.62932Z" fill="#6D7A96"/>
</svg>
