<svg width="32" height="30" viewBox="0 0 32 30" fill="none" xmlns="http://www.w3.org/2000/svg">
<path d="M6 21.8482C6 22.4943 6.26339 23.114 6.73223 23.5708C7.20107 24.0277 7.83696 24.2843 8.5 24.2843H13.7714L11.9857 26.0244L13.5 27.5L17.1143 23.9781C17.3149 23.7823 17.4276 23.517 17.4276 23.2403C17.4276 22.9636 17.3149 22.6982 17.1143 22.5025L13.5 18.9806L11.9857 20.4562L13.7714 22.1962H8.5C8.40528 22.1962 8.31444 22.1596 8.24746 22.0943C8.18049 22.029 8.14286 21.9405 8.14286 21.8482V12.6432C8.14296 12.585 8.15805 12.5277 8.18675 12.4766C8.21545 12.4255 8.25685 12.3823 8.30714 12.3509L15.9536 7.60741C15.967 7.59941 15.9825 7.59518 15.9982 7.59518C16.014 7.59518 16.0294 7.59941 16.0429 7.60741L23.6929 12.3509C23.7432 12.3823 23.7845 12.4255 23.8132 12.4766C23.842 12.5277 23.857 12.585 23.8571 12.6432V21.8482C23.8571 21.9405 23.8195 22.029 23.7525 22.0943C23.6856 22.1596 23.5947 22.1962 23.5 22.1962H19.9286V24.2843H23.5C24.163 24.2843 24.7989 24.0277 25.2678 23.5708C25.7366 23.114 26 22.4943 26 21.8482V12.6432C26.0003 12.2332 25.8945 11.8297 25.6922 11.4702C25.4899 11.1106 25.1978 10.8067 24.8429 10.5864L17.1964 5.83948C16.8389 5.61777 16.4238 5.5 16 5.5C15.5762 5.5 15.1611 5.61777 14.8036 5.83948L7.15714 10.5864C6.80222 10.8067 6.51009 11.1106 6.30782 11.4702C6.10554 11.8297 5.99967 12.2332 6 12.6432V21.8482Z" fill="white"/>
</svg>
