<svg width="24" height="24" viewBox="0 0 24 24" fill="none" xmlns="http://www.w3.org/2000/svg">
<path fill-rule="evenodd" clip-rule="evenodd" d="M24 12C24 5.37259 18.6274 0 12 0C5.37259 0 0 5.37259 0 12C0 13.9214 0.450837 15.7347 1.25163 17.3424C1.57302 17.9877 1.69679 18.7593 1.49401 19.5172L0.721323 22.405C0.579412 22.9353 1.06464 23.4206 1.59501 23.2787L4.48285 22.506C5.24073 22.3033 6.01234 22.427 6.65761 22.7484C8.26535 23.5492 10.0786 24 12 24C18.6274 24 24 18.6274 24 12ZM7.4462 11.9704C7.8953 11.5213 8.62344 11.5213 9.07255 11.9704L10.8488 13.7467L10.8489 6.90493C10.8489 6.2698 11.3637 5.75493 11.9989 5.75493C12.634 5.75493 13.1489 6.2698 13.1489 6.90493L13.1488 13.7478L14.9263 11.9704C15.3754 11.5213 16.1035 11.5213 16.5527 11.9704C17.0018 12.4195 17.0018 13.1476 16.5527 13.5967L11.9994 18.15L7.4462 13.5967C6.9971 13.1476 6.9971 12.4195 7.4462 11.9704Z" fill="#6A7283"/>
</svg>
