<svg width="24" height="24" viewBox="0 0 24 24" fill="none" xmlns="http://www.w3.org/2000/svg">
<path fill-rule="evenodd" clip-rule="evenodd" d="M24 12C24 5.37259 18.6274 0 12 0C5.37259 0 0 5.37259 0 12C0 13.9214 0.450837 15.7347 1.25163 17.3424C1.57302 17.9877 1.69679 18.7593 1.49401 19.5172L0.721323 22.405C0.579412 22.9353 1.06464 23.4206 1.59501 23.2787L4.48285 22.506C5.24073 22.3033 6.01234 22.427 6.65761 22.7484C8.26535 23.5492 10.0786 24 12 24C18.6274 24 24 18.6274 24 12ZM18.0002 7.71442C18.6101 8.12718 18.7698 8.95616 18.357 9.56598L10.8563 18.6666L6.00042 13.7144C5.45712 13.2173 5.41969 12.3739 5.91684 11.8307C6.41391 11.2874 7.25734 11.25 7.80055 11.7471L10.8563 14.6151L16.1487 8.07115C16.5615 7.46133 17.3905 7.30162 18.0002 7.71442Z" fill="#6A7283"/>
</svg>
