<svg width="22" height="20" viewBox="0 0 22 20" fill="none" xmlns="http://www.w3.org/2000/svg">
<path fill-rule="evenodd" clip-rule="evenodd" d="M5 3V4H2C0.895431 4 0 4.89543 0 6V11.5H22V6C22 4.89543 21.1046 4 20 4H17V3C17 1.34315 15.6569 0 14 0H8C6.34315 0 5 1.34315 5 3ZM15 4H7V3C7 2.44771 7.44771 2 8 2L14 2C14.5523 2 15 2.44772 15 3V4Z" fill="#6A7283"/>
<path d="M22 12.5H14V15C14 15.5523 13.5523 16 13 16H9C8.44772 16 8 15.5523 8 15V12.5H0V18C0 19.1046 0.89543 20 2 20H20C21.1046 20 22 19.1046 22 18V12.5Z" fill="#6A7283"/>
</svg>
