<svg width="24" height="24" viewBox="0 0 24 24" fill="none" xmlns="http://www.w3.org/2000/svg">
<path fill-rule="evenodd" clip-rule="evenodd" d="M24 12C24 5.37259 18.6274 0 12 0C5.37259 0 0 5.37259 0 12C0 13.9214 0.450837 15.7347 1.25163 17.3424C1.57302 17.9877 1.69679 18.7593 1.49401 19.5172L0.721323 22.405C0.579412 22.9353 1.06464 23.4206 1.59501 23.2787L4.48285 22.506C5.24073 22.3033 6.01234 22.427 6.65761 22.7484C8.26535 23.5492 10.0786 24 12 24C18.6274 24 24 18.6274 24 12ZM9.34873 7.58059C8.86057 7.09244 8.06912 7.09244 7.58096 7.58059C7.0928 8.06875 7.0928 8.86021 7.58096 9.34836L10.2328 12.0002L7.58134 14.6517C7.09318 15.1398 7.09318 15.9313 7.58134 16.4194C8.06949 16.9076 8.86095 16.9076 9.3491 16.4194L12.0006 13.768L14.652 16.4194C15.1402 16.9076 15.9316 16.9076 16.4198 16.4194C16.908 15.9313 16.908 15.1398 16.4198 14.6517L13.7683 12.0002L16.4202 9.34837C16.9083 8.86022 16.9083 8.06876 16.4202 7.58061C15.932 7.09245 15.1406 7.09245 14.6524 7.58061L12.0006 10.2324L9.34873 7.58059Z" fill="#6A7283"/>
</svg>
