<svg width="14" height="11" viewBox="0 0 14 11" fill="none" xmlns="http://www.w3.org/2000/svg">
<path d="M5.84067 9.67566C5.84067 10.4883 6.7585 10.9616 7.42054 10.4904L12.8553 6.62213C13.4155 6.22343 13.4155 5.39142 12.8553 4.99272L7.42054 1.12448C6.7585 0.653271 5.84067 1.12658 5.84067 1.93918L5.84067 3.76323C4.74258 3.75042 3.62888 4.06551 2.63821 4.73959C1.17701 5.73383 0.285218 7.30376 0.0578724 8.98216C-0.0719838 9.94085 1.22732 10.0675 1.90992 9.38195C2.16915 9.1216 2.45529 8.88296 2.7674 8.67059C3.71924 8.02293 4.78465 7.70668 5.84067 7.69424L5.84067 9.67566Z" fill="#3378FF"/>
</svg>
