<svg width="24" height="25" viewBox="0 0 24 25" fill="none" xmlns="http://www.w3.org/2000/svg">
<path d="M8.28801 7.17034L11.0891 1.00413C11.4443 0.222268 12.5549 0.222254 12.9101 1.0041L15.7114 7.17036C15.8532 7.48234 16.1448 7.70003 16.4842 7.74721L23.0081 8.65416C23.8262 8.7679 24.1615 9.76835 23.5771 10.3521L18.7418 15.1822C18.511 15.4128 18.4072 15.7414 18.4636 16.0628L19.6659 22.9043C19.8124 23.7382 18.9212 24.3655 18.1857 23.9461L12.4949 20.7017C12.1879 20.5267 11.8113 20.5267 11.5043 20.7017L5.81376 23.9461C5.07828 24.3654 4.18702 23.7381 4.33355 22.9043L5.53581 16.0628C5.59227 15.7414 5.48844 15.4128 5.25762 15.1822L0.422334 10.3521C-0.162071 9.76835 0.173203 8.7679 0.991363 8.65416L7.51524 7.74721C7.85466 7.70003 8.14627 7.48233 8.28801 7.17034Z" fill="#6A7283"/>
</svg>
