<svg width="20" height="20" viewBox="0 0 20 20" fill="none" xmlns="http://www.w3.org/2000/svg">
<path fill-rule="evenodd" clip-rule="evenodd" d="M12.2771 2.76967C12.3156 3.15489 12.5758 3.47753 12.9274 3.63961C13.3203 3.82071 13.6935 4.03714 14.043 4.28482C14.359 4.50874 14.7687 4.57283 15.1216 4.41354L16.8354 3.64014C17.3037 3.42881 17.8559 3.6067 18.1128 4.05162L19.2078 5.94825C19.4647 6.39317 19.3426 6.96036 18.9255 7.26023L17.399 8.35754C17.085 8.58327 16.9356 8.96939 16.9708 9.35452C16.9902 9.56707 17.0001 9.78238 17.0001 10C17.0001 10.2176 16.9902 10.4329 16.9708 10.6454C16.9356 11.0305 17.085 11.4166 17.399 11.6423L18.9255 12.7396C19.3426 13.0395 19.4647 13.6067 19.2078 14.0516L18.1128 15.9482C17.8559 16.3932 17.3037 16.5711 16.8354 16.3597L15.1218 15.5864C14.7688 15.4271 14.3591 15.4912 14.0431 15.7151C13.6936 15.9628 13.3203 16.1793 12.9274 16.3604C12.5758 16.5225 12.3156 16.8451 12.2771 17.2303L12.0902 19.0995C12.0391 19.6107 11.6089 20 11.0951 20H8.90512C8.39136 20 7.9612 19.6107 7.91008 19.0995L7.72316 17.2303C7.68464 16.8451 7.42441 16.5225 7.07282 16.3604C6.67992 16.1793 6.30666 15.9628 5.95711 15.715C5.64114 15.4911 5.23144 15.427 4.87844 15.5863L3.16466 16.3597C2.69638 16.5711 2.14416 16.3932 1.88728 15.9482L0.792267 14.0516C0.535392 13.6067 0.657447 13.0395 1.0746 12.7396L2.60125 11.6422C2.91525 11.4165 3.06467 11.0304 3.02947 10.6453C3.01005 10.4328 3.00013 10.2176 3.00013 10C3.00013 9.7824 3.01006 9.56713 3.02948 9.35462C3.06469 8.96951 2.91527 8.5834 2.60127 8.35767L1.0746 7.26023C0.65745 6.96036 0.535393 6.39317 0.792268 5.94825L1.88728 4.05164C2.14415 3.60671 2.69638 3.42882 3.16466 3.64016L4.8785 4.41363C5.2315 4.57294 5.64121 4.50884 5.95719 4.28489C6.30672 4.03718 6.67996 3.82073 7.07284 3.63961C7.42442 3.47753 7.68464 3.15488 7.72316 2.76966L7.91008 0.900497C7.9612 0.389295 8.39136 0 8.90512 0H11.0951C11.6089 0 12.0391 0.389294 12.0902 0.900496L12.2771 2.76967ZM10 13C11.6569 13 13 11.6569 13 10C13 8.34315 11.6569 7 10 7C8.34315 7 7 8.34315 7 10C7 11.6569 8.34315 13 10 13Z" fill="#6A7283"/>
</svg>
