<svg width="18" height="22" viewBox="0 0 18 22" fill="none" xmlns="http://www.w3.org/2000/svg">
<path fill-rule="evenodd" clip-rule="evenodd" d="M3 0C1.34315 0 0 1.34314 0 3V19C0 20.6569 1.34315 22 3 22H15C16.6569 22 18 20.6569 18 19V12.0395H11.4026L13.18 13.817C13.6291 14.2661 13.6291 14.9942 13.18 15.4433C12.7309 15.8924 12.0028 15.8924 11.5537 15.4433L7.00047 10.8901L11.5537 6.33685C12.0028 5.8877 12.7309 5.8877 13.18 6.33685C13.6291 6.78595 13.6291 7.5141 13.18 7.9632L11.4037 9.7395H18V3C18 1.34314 16.6569 0 15 0H3Z" fill="#6A7283"/>
</svg>
