<svg width="18" height="18" viewBox="0 0 18 18" fill="none" xmlns="http://www.w3.org/2000/svg">
<path fill-rule="evenodd" clip-rule="evenodd" d="M16.4713 2.20334C16.4085 1.76337 16.0628 1.41768 15.6228 1.35482L10.5404 0.628745C10.2288 0.58423 9.91447 0.689019 9.6919 0.911587L0.821415 9.78207C0.430891 10.1726 0.43089 10.8058 0.821414 11.1963L6.62985 17.0047C7.02038 17.3952 7.65354 17.3952 8.04407 17.0047L16.9145 8.13424C17.1371 7.91167 17.2419 7.5973 17.1974 7.2857L16.4713 2.20334ZM11.8511 5.97508C12.3497 6.4737 13.1581 6.4737 13.6568 5.97508C14.1554 5.47646 14.1554 4.66804 13.6568 4.16942C13.1581 3.6708 12.3497 3.6708 11.8511 4.16942C11.3525 4.66804 11.3525 5.47646 11.8511 5.97508Z" fill="#8F9AB1"/>
</svg>
