<svg width="21" height="18" viewBox="0 0 21 18" fill="none" xmlns="http://www.w3.org/2000/svg">
<path fill-rule="evenodd" clip-rule="evenodd" d="M5.33985 13.4506V6.69715C5.34197 3.91646 7.65136 1.66248 10.4994 1.66248C13.3494 1.66248 15.6589 3.91741 15.6589 6.70034V13.8435C15.6589 15.2214 14.5159 16.3374 13.1047 16.3374H10.8305C10.3601 16.3374 9.97908 16.7094 9.97908 17.1687C9.97908 17.628 10.3601 18 10.8305 18H13.1047C15.3045 18 17.1148 16.3717 17.3382 14.2819H17.6181C19.969 14.2819 21 12.4208 21 10.1253V9.44365C21 7.14717 19.969 5.28712 17.6181 5.28712H17.2084C16.5443 2.26541 13.7933 0 10.4995 0C7.20673 0 4.45452 2.26531 3.79058 5.28712H3.38191C1.03103 5.28712 0 7.14717 0 9.44365V10.1253C0 12.4208 1.03103 14.2819 3.38191 14.2819H4.48871C4.95911 14.2819 5.33985 13.9088 5.33985 13.4506Z" fill="#757880"/>
</svg>
