<svg width="24" height="20" viewBox="0 0 24 20" fill="none" xmlns="http://www.w3.org/2000/svg">
<path fill-rule="evenodd" clip-rule="evenodd" d="M6.10268 14.9451V7.44127C6.10511 4.35162 8.74441 1.8472 11.9993 1.8472C15.2564 1.8472 17.8959 4.35268 17.8959 7.44482V15.3816C17.8959 16.9126 16.5896 18.1526 14.9768 18.1526H12.3777C11.8401 18.1526 11.4047 18.566 11.4047 19.0763C11.4047 19.5867 11.8401 20 12.3777 20H14.9768C17.4908 20 19.5598 18.1908 19.8151 15.8687H20.135C22.8217 15.8687 24 13.8009 24 11.2504V10.4929C24 7.9413 22.8217 5.87457 20.135 5.87457H19.6667C18.9078 2.51712 15.7638 0 11.9994 0C8.23626 0 5.09088 2.51701 4.33209 5.87457H3.86504C1.17832 5.87457 0 7.9413 0 10.4929V11.2504C0 13.8009 1.17832 15.8687 3.86504 15.8687H5.12995C5.66755 15.8687 6.10268 15.4543 6.10268 14.9451Z" fill="#6A7283"/>
</svg>
