<svg width="73" height="73" viewBox="0 0 73 73" fill="none" xmlns="http://www.w3.org/2000/svg">
<g clip-path="url(#clip0_5730_22)">
<path d="M72.0455 44.7583C76.6069 25.1258 64.3893 5.51264 44.7567 0.951218C25.1242 -3.6102 5.51104 8.60739 0.949616 28.24C-3.61181 47.8726 8.60579 67.4857 28.2384 72.0471C47.871 76.6085 67.4841 64.3909 72.0455 44.7583Z" fill="#010101"/>
<path d="M18.9336 52.2468L19.0792 52.6627C19.0792 52.6627 19.0064 52.4756 18.9336 52.2468ZM24.6833 42.962C24.7501 42.0317 25.0267 41.1287 25.4924 40.3207C25.958 39.5126 26.6006 38.8205 27.3719 38.2963C28.1433 37.772 29.0233 37.4293 29.9461 37.2938C30.8688 37.1582 31.8102 37.2334 32.6997 37.5137V31.764C33.3956 31.7433 34.0919 31.7885 34.7792 31.8992V39.2917C33.8946 39.0193 32.9601 38.9491 32.0448 39.0865C31.1295 39.2239 30.2567 39.5652 29.491 40.0853C28.7254 40.6054 28.0864 41.2909 27.6214 42.0912C27.1564 42.8914 26.8772 43.786 26.8044 44.7087C26.7379 46.1884 27.1579 47.6492 28.0001 48.8677C27.7506 48.7325 27.501 48.587 27.2515 48.4206C26.4032 47.7961 25.724 46.9699 25.2756 46.0168C24.8272 45.0636 24.6236 44.0137 24.6833 42.962ZM46.8714 21.1275C45.6098 19.7227 44.7638 17.9947 44.428 16.1367H46.5074C46.412 18.6209 47.3013 21.0424 48.982 22.8742C48.1858 22.3593 47.459 21.7443 46.8194 21.0443L46.8714 21.1275ZM56.6033 26.3262V33.6043C55.0906 33.5366 53.5871 33.3312 52.1116 32.9909C50.577 32.5948 49.1041 31.9895 47.7343 31.1921L46.4555 30.35V45.3222C46.4073 46.9116 46.1091 48.4836 45.5717 49.9802C44.299 53.2697 41.7972 55.9356 38.595 57.4143C36.8506 58.2184 34.9533 58.6369 33.0324 58.6412C30.3694 58.6306 27.7661 57.8507 25.5359 56.3954C24.7662 55.8616 24.049 55.2559 23.3941 54.5862C25.6171 56.0475 28.2199 56.8248 30.8802 56.8217C32.8006 56.8239 34.6986 56.4088 36.4428 55.6052C38.1657 54.8 39.705 53.6499 40.9656 52.226C42.0114 51.0203 42.8446 49.6456 43.4298 48.1607C43.967 46.6676 44.2653 45.0991 44.3136 43.513V28.572L45.5925 29.4038C46.9667 30.2046 48.4475 30.8067 49.9906 31.1921C51.4661 31.5325 52.9695 31.7378 54.4822 31.8056V26.139C55.1751 26.3122 55.8903 26.3789 56.6033 26.3366V26.3262Z" fill="#EE2353"/>
<path d="M54.4822 26.1286V31.8056C52.9695 31.7378 51.4661 31.5325 49.9906 31.1921C48.4541 30.8015 46.9804 30.196 45.6133 29.3934L44.3344 28.5616V43.5338C44.286 45.1199 43.9878 46.6884 43.4506 48.1815C42.8654 49.6664 42.0322 51.0411 40.9864 52.2468C39.7258 53.6707 38.1865 54.8208 36.4636 55.626C34.7194 56.4296 32.8214 56.8447 30.901 56.8425C28.2415 56.8395 25.6405 56.0628 23.4149 54.607C23.0437 54.2305 22.6965 53.8311 22.3751 53.4113C21.5365 52.3037 20.8607 51.0818 20.3684 49.7827C19.8393 48.2259 19.5723 46.5921 19.5782 44.9479C19.618 42.8024 20.1744 40.6982 21.2002 38.8134C22.0135 37.366 23.0685 36.0684 24.3194 34.9768C25.4341 34.0207 26.7034 33.2612 28.0729 32.731C29.544 32.1068 31.1226 31.7749 32.7205 31.7536V37.5033C31.32 37.0575 29.8062 37.1266 28.4522 37.6983C27.0981 38.2699 25.9928 39.3065 25.3355 40.6211C24.6782 41.9357 24.5121 43.4419 24.8672 44.8682C25.2223 46.2944 26.0753 47.5469 27.2723 48.3998C27.5322 48.5662 27.7818 48.7117 28.0313 48.8469C28.8842 49.9829 30.0994 50.7938 31.4757 51.1454C32.8521 51.4971 34.3073 51.3684 35.6006 50.7808C36.3516 50.4533 37.025 49.971 37.5768 49.3654C38.1287 48.7598 38.5465 48.0446 38.803 47.2665C39.0763 46.3217 39.1854 45.3369 39.1253 44.3552V16.1367H44.4488C44.7752 17.9957 45.6184 19.7252 46.8817 21.1275C47.526 21.8226 48.2522 22.4371 49.0444 22.9574C49.8906 23.8732 50.8854 24.6396 51.9869 25.224C52.7818 25.6189 53.6189 25.9224 54.4822 26.1286Z" fill="white"/>
<path d="M18.2163 48.0047L18.3515 48.3894C18.3515 48.3894 18.2787 48.2126 18.2163 48.0047Z" fill="#6BCAD0"/>
<path d="M28.073 32.7309C26.7157 33.2594 25.4547 34.0076 24.3403 34.9456C23.086 36.042 22.0308 37.347 21.2211 38.803C20.1934 40.687 19.6369 42.7917 19.5991 44.9375C19.5976 46.5813 19.8645 48.2144 20.3893 49.7723C20.8838 51.0704 21.5594 52.292 22.396 53.4009C22.72 53.8186 23.0671 54.2178 23.4358 54.5966C22.2353 53.7666 21.1633 52.7647 20.2542 51.623C19.4201 50.518 18.7478 49.2996 18.2579 48.0047C17.7222 46.4463 17.4585 44.8073 17.4781 43.1595C17.5117 41.0165 18.0685 38.9142 19.1001 37.0355C19.9056 35.5767 20.9615 34.2711 22.2193 33.178C23.3434 32.2296 24.6194 31.4774 25.9935 30.953C26.8228 30.5971 27.687 30.3287 28.5721 30.1524C29.9467 29.9153 31.3499 29.8942 32.731 30.09V31.7432C31.1342 31.7651 29.5564 32.0934 28.0834 32.7102L28.073 32.7309Z" fill="#6BCAD0"/>
<path d="M44.4278 16.1367H39.1148V44.3552C39.1696 45.3368 39.0607 46.3207 38.7925 47.2665C38.5313 48.0422 38.1118 48.7552 37.5605 49.3601C37.0093 49.9651 36.3382 50.4489 35.5901 50.7808C34.5969 51.2677 33.4883 51.4701 32.3871 51.3655C31.286 51.2609 30.2353 50.8534 29.3516 50.1882C28.8574 49.8193 28.4256 49.3735 28.0728 48.8677C28.9027 49.3269 29.8309 49.5799 30.7791 49.6052C31.7273 49.6306 32.6677 49.4275 33.521 49.0132C34.27 48.6818 34.9412 48.1968 35.491 47.5896C36.0409 46.9825 36.4571 46.2667 36.713 45.4885C36.9717 44.5589 37.0667 43.5914 36.9937 42.6293V14.3588H44.3343C44.2831 14.9529 44.3146 15.5513 44.4278 16.1367ZM54.4821 24.5586V26.1286C53.6188 25.9224 52.7816 25.6189 51.9867 25.224C50.8794 24.6392 49.8778 23.873 49.0235 22.9574C49.2938 23.1342 49.5745 23.2901 49.8657 23.4461C51.2878 24.1957 52.8746 24.5781 54.4821 24.5586Z" fill="#6BCAD0"/>
</g>
<defs>
<clipPath id="clip0_5730_22">
<rect width="73" height="73" fill="white"/>
</clipPath>
</defs>
</svg>
